<?xml version="1.0" encoding="UTF-8" ?>
<!DOCTYPE svg PUBLIC "-//W3C//DTD SVG 1.1//EN" "http://www.w3.org/Graphics/SVG/1.1/DTD/svg11.dtd">
<svg width="1240pt" height="759pt" viewBox="0 0 1240 759" version="1.1" xmlns="http://www.w3.org/2000/svg">
<g id="#e76e20ff">
<path fill="#e76e20" opacity="1.00" d=" M 478.12 259.93 C 485.17 256.77 493.06 255.59 500.73 256.41 C 496.05 272.70 491.66 289.13 488.79 305.85 C 487.74 311.42 487.87 317.11 488.09 322.75 C 498.68 311.47 508.63 299.56 519.76 288.78 C 531.83 277.77 546.13 267.70 562.77 265.74 C 566.93 285.48 562.61 305.63 559.09 325.11 C 556.09 342.56 552.73 360.82 557.76 378.23 C 560.39 387.29 565.58 395.48 572.40 401.98 C 576.88 402.17 581.37 402.18 585.85 402.32 C 586.32 380.75 592.97 359.87 601.11 340.08 C 605.67 330.39 610.85 320.01 620.33 314.27 C 621.14 318.16 621.01 322.21 619.95 326.04 C 614.88 345.70 603.39 363.08 598.96 382.95 C 597.44 389.45 596.86 396.65 600.08 402.75 C 603.90 402.88 608.18 403.76 611.58 401.49 C 624.70 393.91 636.08 383.05 643.69 369.90 C 649.40 359.45 654.79 348.83 660.20 338.23 C 664.92 329.99 670.09 320.66 679.41 317.04 C 680.49 330.92 673.23 343.39 669.55 356.35 C 666.77 365.36 665.67 375.57 669.78 384.35 C 671.97 389.09 677.12 391.64 682.10 392.23 C 689.46 393.52 696.94 392.78 704.37 393.06 C 702.54 397.81 698.81 401.29 695.82 405.23 C 702.27 405.43 708.73 405.45 715.18 405.71 C 713.96 402.02 711.29 398.99 710.27 395.19 C 734.36 394.19 756.87 406.26 780.94 405.77 C 789.49 405.11 798.23 401.62 803.78 394.88 C 810.04 387.51 812.37 377.40 811.66 367.92 C 810.76 359.59 803.64 353.67 796.38 350.57 C 780.52 343.78 762.99 343.11 746.00 342.47 C 739.82 342.05 733.64 342.25 727.46 342.02 C 729.03 334.50 735.54 329.18 742.31 326.30 C 752.38 321.81 763.06 319.01 773.53 315.64 C 790.61 311.01 807.52 305.31 825.12 303.00 C 823.34 306.74 819.84 309.12 816.56 311.43 C 804.81 319.15 791.24 323.29 778.25 328.37 C 789.04 332.94 800.08 336.88 810.89 341.40 C 818.47 345.23 823.44 352.95 825.47 361.02 C 827.19 370.49 826.85 380.66 822.68 389.47 C 818.78 397.48 811.85 403.59 804.13 407.82 C 820.07 408.57 836.03 409.22 851.99 409.12 C 844.26 403.61 837.68 395.69 836.61 385.95 C 834.67 369.06 839.71 351.89 848.54 337.54 C 856.12 325.49 866.18 314.13 879.69 308.78 C 889.79 304.89 901.86 303.94 911.51 309.59 C 917.65 315.64 915.93 325.40 912.19 332.27 C 908.43 339.64 903.25 346.73 895.77 350.65 C 895.27 346.81 894.54 342.88 895.53 339.06 C 896.63 332.87 901.79 328.39 903.22 322.34 C 898.00 320.51 892.42 319.13 886.90 320.35 C 881.49 321.73 876.69 324.88 872.56 328.55 C 864.57 336.19 858.16 345.39 853.22 355.26 C 849.18 363.29 846.55 372.56 848.61 381.53 C 850.91 390.40 858.36 396.99 866.53 400.53 C 872.31 403.22 878.82 403.92 885.13 403.82 C 898.95 401.84 911.00 394.21 924.12 389.96 C 927.92 388.60 931.68 390.83 934.95 392.57 C 930.38 400.74 922.71 406.39 914.56 410.61 C 914.50 410.65 914.37 410.73 914.31 410.77 L 914.51 410.79 C 923.31 411.46 932.17 411.07 940.98 411.74 C 942.73 411.69 944.91 412.36 946.16 410.71 C 939.29 405.82 936.85 397.12 937.14 389.04 C 937.62 355.15 946.71 321.74 961.06 291.17 C 967.79 278.52 974.91 265.76 985.10 255.52 C 987.37 259.12 989.12 263.72 987.04 267.83 C 974.74 296.59 960.24 324.62 952.09 354.96 C 949.44 365.40 947.12 376.13 947.80 386.97 C 948.11 392.32 950.25 398.07 954.91 401.11 C 959.34 403.82 964.76 404.30 969.83 403.71 C 979.73 402.96 989.28 400.01 999.04 398.32 C 993.99 404.21 987.46 409.00 980.01 411.28 C 979.01 411.02 976.06 412.08 977.86 413.09 C 978.30 413.05 979.18 412.98 979.62 412.94 C 992.87 412.74 1006.14 413.31 1019.39 413.79 C 1018.34 411.38 1015.28 411.23 1013.42 409.66 C 1007.90 406.46 1006.13 399.85 1005.01 394.02 C 1003.60 385.79 1003.32 377.40 1003.36 369.07 C 1003.19 364.51 1007.34 361.88 1010.77 359.80 C 1022.98 353.06 1033.87 344.26 1045.29 336.31 C 1056.92 327.64 1071.30 321.89 1086.00 322.91 C 1090.06 323.07 1095.51 323.81 1097.30 328.07 C 1098.81 332.86 1096.03 337.61 1093.33 341.39 C 1087.30 349.00 1080.12 355.67 1072.14 361.19 C 1068.51 363.63 1064.88 366.31 1060.58 367.40 C 1051.75 369.32 1042.84 370.89 1034.03 372.86 C 1027.35 374.56 1020.25 377.37 1016.26 383.30 C 1013.70 389.11 1015.50 396.58 1020.44 400.60 C 1026.35 405.71 1034.43 407.10 1041.98 407.71 C 1052.98 408.33 1063.56 404.21 1073.14 399.17 C 1080.65 395.71 1088.40 390.80 1097.03 392.14 C 1100.90 393.76 1103.61 397.29 1105.36 401.01 C 1093.19 407.01 1080.21 411.35 1066.92 414.08 C 1066.02 413.17 1062.92 414.30 1065.06 415.17 C 1065.53 415.10 1066.46 414.96 1066.93 414.90 C 1106.27 416.18 1145.61 416.65 1184.95 418.19 C 1193.92 418.41 1202.92 418.26 1211.89 418.50 C 1199.59 418.51 1187.26 419.13 1174.97 418.45 C 1123.00 418.06 1071.01 417.67 1019.05 417.02 C 977.36 417.11 935.69 415.84 894.01 416.00 C 873.66 415.87 853.31 415.71 832.97 415.23 C 776.66 415.04 720.37 414.18 664.06 413.84 C 636.06 413.56 608.06 413.07 580.05 412.99 C 578.52 412.99 577.01 413.10 575.51 413.32 L 575.32 413.35 C 575.36 413.40 575.46 413.50 575.50 413.55 C 577.00 415.38 579.08 416.57 580.94 418.00 C 613.43 442.01 643.22 469.93 668.06 501.86 C 636.80 468.44 601.36 439.02 563.00 414.11 C 561.83 413.29 560.52 412.66 559.06 412.82 C 539.38 412.70 519.70 412.59 500.03 412.14 C 448.34 412.09 396.68 411.03 344.99 410.88 C 316.66 410.67 288.34 410.10 260.02 410.00 C 218.61 409.90 177.23 408.94 135.83 409.01 C 141.51 403.17 146.30 396.47 152.33 390.98 C 176.56 392.12 200.83 391.99 225.05 393.01 C 314.04 395.34 403.03 397.59 492.01 400.00 C 508.37 399.89 524.68 401.27 541.04 401.05 C 539.52 399.86 537.97 398.71 536.27 397.81 C 485.32 368.90 429.29 347.97 371.00 340.57 C 315.66 332.67 258.91 338.06 205.28 353.30 C 159.49 366.16 115.71 385.72 74.77 409.81 C 58.93 419.17 43.50 429.24 28.85 440.37 C 24.09 432.18 23.34 422.21 24.69 413.00 C 24.59 410.64 27.10 409.86 28.66 408.71 C 75.50 380.35 126.38 358.79 179.03 343.81 C 237.37 327.70 298.81 320.28 359.10 328.05 C 367.13 328.72 374.98 330.87 383.03 331.36 C 390.79 316.66 399.63 302.40 405.60 286.82 C 390.42 282.91 374.87 280.04 360.33 273.96 C 368.81 273.34 377.37 272.86 385.60 270.53 C 395.17 268.00 404.28 263.95 413.84 261.48 C 420.64 276.59 419.65 293.51 421.84 309.59 C 423.59 309.40 424.65 307.92 425.81 306.78 C 433.73 298.07 441.90 289.58 449.92 280.95 C 457.87 272.25 467.36 264.82 478.12 259.93 M 460.25 294.07 C 448.17 307.06 435.85 319.81 423.70 332.73 C 421.66 334.95 419.33 336.94 417.68 339.50 C 428.23 342.34 438.68 345.54 449.05 349.00 C 455.48 330.63 462.07 311.94 463.36 292.36 C 462.12 292.60 461.09 293.17 460.25 294.07 M 537.54 297.47 C 516.91 314.43 502.38 337.17 485.89 357.86 C 485.02 359.23 483.41 360.37 483.51 362.16 C 486.19 363.75 489.17 364.76 492.00 366.08 C 508.17 373.18 523.65 381.71 539.09 390.25 C 538.48 384.83 537.41 379.47 537.16 374.02 C 535.94 347.70 541.38 321.68 541.60 295.40 C 540.14 295.87 538.67 296.41 537.54 297.47 M 1068.97 335.17 C 1059.44 337.71 1051.45 343.76 1043.79 349.70 C 1041.16 351.85 1038.18 353.62 1035.99 356.26 C 1046.88 358.97 1058.52 356.40 1068.42 351.46 C 1075.72 347.67 1082.60 341.92 1085.49 333.99 C 1079.96 333.63 1074.31 333.52 1068.97 335.17 M 649.19 379.14 C 645.82 384.37 642.38 389.57 638.57 394.49 C 636.20 397.53 633.23 400.07 631.19 403.36 C 645.86 404.46 660.63 403.88 675.33 404.75 C 672.36 401.35 668.52 398.85 665.63 395.39 C 660.53 389.43 655.69 383.19 651.78 376.38 C 650.78 377.16 649.83 378.03 649.19 379.14 Z" />
</g>
<g id="#98714fa2">
<path fill="#98714f" opacity="0.64" d=" M 914.31 410.77 C 914.37 410.73 914.50 410.65 914.56 410.61 L 914.51 410.79 L 914.31 410.77 Z" />
</g>
<g id="#cf8e60de">
<path fill="#cf8e60" opacity="0.87" d=" M 977.86 413.09 C 976.06 412.08 979.01 411.02 980.01 411.28 C 979.91 411.70 979.72 412.53 979.62 412.94 C 979.18 412.98 978.30 413.05 977.86 413.09 Z" />
</g>
<g id="#94805f97">
<path fill="#94805f" opacity="0.59" d=" M 575.32 413.35 L 575.51 413.32 L 575.50 413.55 C 575.46 413.50 575.36 413.40 575.32 413.35 Z" />
</g>
<g id="#efc58fff">
<path fill="#efc58f" opacity="1.00" d=" M 1065.06 415.17 C 1062.92 414.30 1066.02 413.17 1066.92 414.08 L 1066.93 414.90 C 1066.46 414.96 1065.53 415.10 1065.06 415.17 Z" />
</g>
<g id="#424242ff">
<path fill="#424242" opacity="1.00" d=" M 646.53 441.65 C 653.97 436.65 663.26 435.91 671.95 435.18 C 686.31 434.80 701.03 434.58 714.91 438.87 C 714.94 440.69 714.96 442.51 714.99 444.33 C 703.68 440.86 691.77 440.13 680.01 440.09 C 672.43 440.31 664.75 440.60 657.40 442.62 C 654.02 443.66 650.24 445.05 648.54 448.42 C 647.32 452.03 650.30 455.19 653.41 456.47 C 661.15 459.78 669.70 460.12 677.99 460.52 C 690.38 460.69 702.88 459.81 714.93 456.75 C 714.93 458.49 714.93 460.24 714.93 461.99 C 705.90 464.68 696.46 465.95 687.05 466.00 C 675.75 466.22 664.23 465.80 653.39 462.36 C 649.30 461.04 645.06 458.96 642.89 455.06 C 640.63 450.44 642.24 444.49 646.53 441.65 Z" />
<path fill="#424242" opacity="1.00" d=" M 721.54 436.04 C 744.83 436.02 768.11 436.02 791.40 436.04 C 791.39 437.77 791.38 439.51 791.38 441.26 C 770.10 441.40 748.81 441.03 727.54 441.44 C 727.56 443.48 727.59 445.53 727.63 447.58 C 748.90 447.69 770.17 447.54 791.43 447.65 C 791.38 449.36 791.34 451.07 791.30 452.79 C 770.09 452.76 748.88 452.78 727.67 452.78 C 727.63 455.04 727.61 457.31 727.59 459.58 C 748.83 459.67 770.07 459.54 791.31 459.64 C 791.39 461.19 791.49 462.74 791.61 464.30 C 768.19 464.07 744.74 464.12 721.31 464.30 C 721.83 454.89 721.40 445.45 721.54 436.04 Z" />
<path fill="#424242" opacity="1.00" d=" M 799.13 436.04 C 803.05 436.20 807.08 435.53 810.92 436.49 C 828.72 444.08 846.54 451.67 864.33 459.29 C 864.47 451.55 864.40 443.81 864.38 436.07 C 866.44 436.05 868.52 436.04 870.60 436.05 C 870.57 445.62 870.55 455.19 870.61 464.76 C 867.06 464.59 863.35 465.27 859.95 464.05 C 841.74 456.28 823.61 448.33 805.38 440.65 C 805.37 448.69 805.50 456.72 805.30 464.76 C 803.23 464.74 801.18 464.73 799.13 464.72 C 799.06 455.16 799.11 445.60 799.13 436.04 Z" />
<path fill="#424242" opacity="1.00" d=" M 876.03 436.03 C 899.85 436.02 923.66 436.02 947.48 436.04 C 947.45 437.77 947.43 439.51 947.42 441.25 C 936.51 441.38 925.60 441.07 914.70 441.41 C 914.81 449.18 914.78 456.95 914.73 464.72 C 912.68 464.73 910.64 464.75 908.61 464.77 C 908.45 456.95 908.59 449.13 908.52 441.31 C 897.69 441.21 886.87 441.31 876.04 441.26 C 876.02 439.51 876.02 437.77 876.03 436.03 Z" />
<path fill="#424242" opacity="1.00" d=" M 952.90 436.04 C 976.19 436.02 999.48 436.01 1022.76 436.05 C 1022.76 437.76 1022.77 439.48 1022.79 441.20 C 1001.52 441.37 980.25 441.20 958.98 441.29 C 958.95 443.40 958.95 445.52 958.95 447.64 C 980.24 447.65 1001.54 447.48 1022.84 447.73 C 1022.78 449.39 1022.75 451.06 1022.71 452.74 C 1001.46 452.83 980.21 452.75 958.95 452.78 C 958.95 455.06 958.95 457.35 958.96 459.64 C 980.23 459.63 1001.51 459.50 1022.79 459.71 C 1022.76 461.37 1022.75 463.05 1022.74 464.73 C 999.47 464.81 976.21 464.79 952.95 464.74 C 952.84 455.17 952.92 445.61 952.90 436.04 Z" />
<path fill="#424242" opacity="1.00" d=" M 1030.53 436.03 C 1048.36 436.03 1066.19 436.02 1084.02 436.03 C 1087.70 436.22 1091.74 436.02 1094.99 438.07 C 1099.66 440.91 1100.04 448.52 1095.74 451.87 C 1094.14 453.03 1092.20 453.62 1090.41 454.39 C 1094.61 457.93 1099.00 461.22 1103.22 464.74 C 1100.16 464.72 1097.11 464.93 1094.08 464.61 C 1089.34 462.02 1085.89 457.31 1081.02 455.07 C 1066.28 454.81 1051.52 455.07 1036.77 454.95 C 1036.76 458.21 1036.77 461.47 1036.77 464.74 C 1034.69 464.74 1032.62 464.75 1030.57 464.76 C 1030.47 455.19 1030.55 445.61 1030.53 436.03 M 1036.34 450.43 L 1036.77 449.60 C 1050.15 450.36 1063.58 449.73 1076.98 449.95 C 1082.09 449.79 1087.94 450.65 1092.16 447.07 C 1091.80 445.46 1092.53 443.16 1090.62 442.38 C 1088.58 441.33 1086.22 441.51 1084.02 441.40 C 1068.31 441.40 1052.60 441.41 1036.89 441.40 L 1036.84 440.47 C 1035.52 443.63 1036.04 447.13 1036.34 450.43 Z" />
</g>
<g id="#56514fd5">
<path fill="#56514f" opacity="0.84" d=" M 1036.34 450.43 C 1036.04 447.13 1035.52 443.63 1036.84 440.47 L 1036.89 441.40 C 1037.01 444.12 1037.14 446.88 1036.77 449.60 L 1036.34 450.43 Z" />
</g>
<g id="#44423fb9">
<path fill="#44423f" opacity="0.73" d=" M 721.31 464.30 C 744.74 464.12 768.19 464.07 791.61 464.30 C 790.47 464.83 789.27 465.05 788.02 464.98 C 768.00 464.94 747.99 464.95 727.97 464.97 C 725.75 464.86 723.36 465.36 721.31 464.30 Z" />
</g>
</svg>
